<svg id="Contours" xmlns="http://www.w3.org/2000/svg" viewBox="0 0 1148.43 822.26"><path d="M646.31,805.43c-3.95-9,3.62-18.52,10.59-25.4l49.25-48.56c4.12-4.06,8.33-8.18,13.46-10.84,2.42-1.25,5.16-2.18,7.84-1.71,3.37.58,6,3.23,7.81,6.14,4.14,6.71,4.77,15.19,3,22.88s-5.82,14.68-10.45,21.07c-12.67,17.46-30.21,31.15-49.73,40.34-5.4,2.54-11.16,4.79-17.13,4.66S648.71,810.89,646.31,805.43Z"/><path d="M891.58,187.6a26.52,26.52,0,0,1-3.69,6A72.75,72.75,0,0,1,871.83,209c-11.19,7.78-25.15,12.35-38.58,10a8.76,8.76,0,0,1-3.29-1.09c-2.28-1.46-3-4.63-2.28-7.25s2.44-4.82,4.19-6.88a174.29,174.29,0,0,1,46-38.23,16.06,16.06,0,0,1,13.73,22.07Z"/><path d="M409.74,88.27c4.38,21.3-7.12,42.51-20,60a305.22,305.22,0,0,1-38.21,42.67c-3.85,3.56-9.27,7.25-13.91,4.8-4.23-2.22-4.72-8.09-3.82-12.78,1.75-9,6.56-17.15,11.28-25.06l47.33-79.23c2.2-3.68,7.87-3.93,11.36-1.43S408.87,84.07,409.74,88.27Z"/><path d="M585.06,671.31c-35.93-4.63-71.8,7.37-108,9.07-15.65.74-31.34-.46-46.91-2.28-29.76-3.49-59.6-9.39-86.74-22.11s-51.57-32.78-65.33-59.4c-6.77-13.07-10.71-29.25-3.82-42.27s28.25-17.59,36.2-5.19c29.24,45.6,79,77.49,132.65,85,53.44,7.48,108.64-8.06,161.42,3.1,21.68,4.59,44.48.2,64.9-8.39s38.86-21.18,57.14-33.69l131.9-90.27c6.55-4.48,13.37-9.07,21.2-10.35s17,1.77,20.17,9c-3.12,8.57-10.11,15.05-16.94,21.09a967.75,967.75,0,0,1-205.31,139c-13.41,6.75-27.38,13.3-42.35,14.4C618.37,679.24,601.85,673.47,585.06,671.31Z"/><path d="M700.53,438.66c-1.62-2.07.44-5,2.39-6.73A282.13,282.13,0,0,1,826.51,367a13,13,0,0,1,6-.43c5,1.21,6.81,8,4.69,12.7S830.44,387,826,389.61A506.23,506.23,0,0,1,724.59,436c-6.51,2.15-13.2,4.18-20.06,4.06C703.07,440,701.43,439.82,700.53,438.66Z"/><path d="M295.45,109.55a30,30,0,0,1,11.67,30c-1.48,6.88-5.37,13-9.18,18.87-2.75,4.27-6.25,9-11.31,9.27-3.5.19-6.8-1.95-8.89-4.76s-3.18-6.23-4.17-9.59c-1.8-6.12-3.41-12.51-2.44-18.82a47.18,47.18,0,0,1,3.4-10.67c1.85-4.53,3.81-9.23,7.45-12.5S291.46,106.71,295.45,109.55Z"/><path d="M785,154.19a12.67,12.67,0,0,1,3-2.82c3.24-2,7.7-1.14,10.53,1.39s4.19,6.39,4.39,10.18a21.32,21.32,0,0,1-10.39,19.17,3.75,3.75,0,0,1-1.78.63,3.56,3.56,0,0,1-1.7-.49,14.1,14.1,0,0,1-6.11-18C780.56,161.4,782.58,157.05,785,154.19Z"/><path d="M956.64,72.43c3,2.69,3,7.23,2.88,11.22,0,1.09-.2,2.38-1.15,2.92-.79.44,0,1.57.59,2.29,1.28,1.67.63,4.07-.22,6a41.36,41.36,0,0,1-13.86,17,9.57,9.57,0,0,1-5.06,2.13,7.63,7.63,0,0,1-4-1.18c-5.73-3.37-7.9-11-6.64-17.48s5.3-12.15,9.64-17.19c2.28-2.64,4.76-5.26,7.95-6.67S954.06,70.08,956.64,72.43Z"/><path d="M301.3,475.59a127.27,127.27,0,0,1,.44-16.68c.39-5.49.95-11.4,4.56-15.55,6.31-7.25,18.13-5.22,26.68-.84,19.62,10.05,33.39,28.37,47.31,45.46s29.83,34.29,51,40.46c10.36,3,21.3,3.16,32.09,3.28,33.06.38,66.16.75,99.12-1.7,12.92-1,25.89-2.36,38.81-1.38s26,4.51,36.24,12.45c5,3.85,9.43,10.77,6,16-2.24,3.42-6.77,4.32-10.81,4.93l-82.41,12.42c-31,4.66-62.09,9.34-93.43,9.71-25.2.29-50.79-2.31-74.25-11.53a138.55,138.55,0,0,1-69-59.64C307.07,501.51,302.11,488.82,301.3,475.59Z"/><path d="M387.42,724.33c3.42-12.46,16-20.72,28.74-22.74s25.74,1,38.17,4.52,25,7.51,37.88,7.43l71.64-.43a58.81,58.81,0,0,0,12.23-.94l63.41-14c5.06-1.11,10.22-2.23,15.37-1.71s10.39,3,12.95,7.47,1.48,11.13-3.06,13.61c-34.71,19-73.44,29.44-112.28,37a844.37,844.37,0,0,1-96.21,13c-15.94,1.22-32.66,1.86-47.19-4.82S383.18,739.75,387.42,724.33Z"/><path d="M457.28,22.52A1466.63,1466.63,0,0,0,473.47,202c27.45-20.52,32.82-58.68,37.62-92.62S525.82,36.94,556.69,22A577.76,577.76,0,0,1,532.6,199.46c8.3,6.38,20.85,4,29-2.6S574.46,180.5,579,171.05L646.85,28.43C663.44,65.39,659,111,635.53,144c-6.52,9.19-14.44,17.56-19,27.86s-4.95,23.58,2.82,31.74c11.77,12.34,33.62,5,44.44-8.2s15.58-30.45,26-43.95l17.07,60.84q18.5-40.65,37-81.3c2-4.37,5.26-9.5,10-8.89,2.71.35,4.78,2.56,6.29,4.83,7.8,11.71,6.69,27.14,3.67,40.89s-7.67,27.58-6,41.54,12.44,28.23,26.51,27.85a2188.44,2188.44,0,0,0,294.77-28.13c4.68-.77,8.57,4.6,8,9.32s-4.07,8.51-7.71,11.56c-28.34,23.78-69.35,21.39-105.72,28.19C889.38,274,826,341.66,752,385.22c-71.12,41.89-154,61.8-236.49,63.81s-164.8-13.37-243.48-38.28c-63.13-20-126.68-46.48-192.77-42.35-7.14.45-16.68-.41-18.08-7.42,75.62-60,120.88-150.14,154-240.79q-1.8,53.64-3.58,107.3a137.07,137.07,0,0,0,23.81-60c1.61-11.57,20.72-11.55,26.77-1.56S265,188.77,261,199.71s-8.9,22.74-5.48,33.9A212,212,0,0,1,383.37,206c24.61,2.55,44-23,47.17-47.56s-4.1-49.16-4.77-73.89,8.41-53.13,31.51-62m45.28,316.57c7.84,5.88,19.69,2.51,26.51-4.53s10-16.73,13.52-25.87c4-10.43,9-20.85,17.19-28.47s20.24-11.94,30.84-8.36c6.84,2.3,12.26,7.51,17.34,12.65a63.16,63.16,0,0,1,7.67,8.84c7.11,10.49,7.72,24.45,3.85,36.52s-11.73,22.47-20.56,31.56a159.56,159.56,0,0,1-22.1,18.94c-13.9,9.86-29.36,17.49-42.54,28.3-1.73,1.42-3.36,4.34-1.45,5.51a111.7,111.7,0,0,0,65-21.77A102.9,102.9,0,0,0,636,335.64c4.15-16.62,3.87-34,2.82-51.11a32.83,32.83,0,0,0-1.36-8.78c-2.89-8.4-11.59-13.1-19.56-17a91.34,91.34,0,0,0-13.76-5.84,83.15,83.15,0,0,0-17-2.73c-29.34-2.46-61.46-1.2-84.4,17.28a17.17,17.17,0,0,0-5,19.17c2.89,7.24,10.76,12.43,11.14,20.21.28,5.91-3.9,10.93-6.81,16.07s-4.19,12.64.54,16.19M398.4,378.31a62.67,62.67,0,0,0,72.78,40.6c.83-5-4.19-8.66-8.4-11.38A111.79,111.79,0,0,1,427.41,256.7a163.76,163.76,0,0,0-38.1-4c-24.57.33-48.71,6.16-72.38,12.75a1105.83,1105.83,0,0,0-151.59,54.38c-2,.87-4.27,2.33-4,4.46,4.2,2.91,9.91,1.3,14.73-.41l123.07-43.74c27.89-9.91,57.6-19.95,86.5-13.58,6.62,1.46,14.23,5.23,14.57,12a19.22,19.22,0,0,1-1.14,6.15c-4.72,16.37-5,33.66-5.15,50.69C393.78,349.88,393.66,364.66,398.4,378.31Z"/></svg>